<svg xmlns="http://www.w3.org/2000/svg" version="1.1" xmlns:xlink="http://www.w3.org/1999/xlink" xmlns:svgjs="http://svgjs.dev/svgjs" width="1000" height="1000" viewBox="0 0 1000 1000"><rect width="1000" height="1000" fill="#000000"></rect><g transform="matrix(0.7,0,0,0.7,150,218.95000000000005)"><svg viewBox="0 0 448 360" data-background-color="#ffffff" preserveAspectRatio="xMidYMid meet" height="803" width="1000" xmlns="http://www.w3.org/2000/svg" xmlns:xlink="http://www.w3.org/1999/xlink"><g id="tight-bounds" transform="matrix(1,0,0,1,0,0)"><svg viewBox="0 0 448 360" height="360" width="448"><g><svg></svg></g><g><svg viewBox="0 0 448 360" height="360" width="448"><g><path xmlns="http://www.w3.org/2000/svg" d="M193.855 44.683c1.378 0 2.494 1.116 2.495 2.494 0 1.378-1.116 2.494-2.495 2.495h-23.846l-17.167 17.167c-0.973 0.973-2.551 0.973-3.53 0-0.973-0.973-0.973-2.551 0-3.529l13.644-13.645h-40.378c-11.518 0-19.151 2.688-23.815 8.113-4.739 5.519-6.66 14.056-6.66 25.63 0 0.069 0 0.137-0.006 0.206l0.212 36.692 14.692-14.692c0.973-0.973 2.551-0.973 3.53 0 0.973 0.973 0.973 2.551 0 3.53l-18.178 18.178c0.206 35.832 0.193 71.358-0.013 107.19 25.486 25.2 50.617 50.312 75.811 75.791h25.38c1.378 0 2.494 1.116 2.495 2.495 0 1.378-1.116 2.494-2.495 2.494h-20.448l25.942 26.241 0.006-0.006c8.188 8.188 15.577 12.859 22.824 13.413 7.146 0.543 14.442-2.956 22.586-11.093l28.555-28.555h-20.722c-1.378 0-2.494-1.116-2.495-2.494 0-1.378 1.116-2.494 2.495-2.495h25.711l16.625-16.625c0.973-0.973 2.551-0.973 3.529 0 0.973 0.973 0.973 2.551 0 3.53l-13.101 13.102h40.377c11.518 0 19.151-2.688 23.815-8.113 4.739-5.519 6.66-14.056 6.66-25.63h0.013l-0.212-36.898-16.014 16.014c-0.973 0.973-2.551 0.973-3.53 0-0.973-0.973-0.973-2.551 0-3.53l19.5-19.5c-0.206-35.832-0.193-71.358 0.013-107.19-25.486-25.2-50.617-50.312-75.811-75.791h-26.147c-1.378 0-2.494-1.116-2.495-2.495 0-1.378 1.116-2.494 2.495-2.494h21.215l-25.824-26.123c-0.044-0.037-0.081-0.075-0.124-0.112-8.188-8.188-15.577-12.859-22.824-13.413-7.146-0.543-14.442 2.956-22.586 11.093l-28.555 28.555h18.858zM122.578 44.683h45.367l32.078-32.078c9.248-9.248 17.81-13.195 26.484-12.534 8.568 0.649 16.956 5.824 25.985 14.854 0.05 0.05 0.094 0.094 0.137 0.143l29.278 29.615h43.508c13.071 0 21.919 3.268 27.594 9.871 5.6 6.517 7.864 16.101 7.864 28.867 0 0.081-0.006 0.156-0.012 0.23l-0.225 39.742 28.43 28.112 0.006-0.006c9.03 9.03 14.206 17.411 14.854 25.985 0.661 8.674-3.293 17.236-12.534 26.484l-30.768 30.768 0.237 41.843h0.012c0 12.765-2.27 22.35-7.864 28.867-5.675 6.604-14.524 9.872-27.594 9.871h-45.366l-32.078 32.078c-9.248 9.248-17.81 13.195-26.484 12.534-8.568-0.649-16.956-5.824-25.985-14.854l0.006-0.006-29.421-29.758h-43.509c-13.071 0-21.919-3.268-27.594-9.872-5.6-6.517-7.864-16.101-7.863-28.866h0.012l0.231-39.972-28.293-27.969c-0.05-0.044-0.1-0.087-0.143-0.137-9.03-9.03-14.206-17.411-14.854-25.985-0.661-8.674 3.293-17.236 12.534-26.484l30.768-30.768-0.237-41.607c-0.006-0.075-0.012-0.156-0.012-0.23 0-12.765 2.27-22.35 7.864-28.867 5.675-6.604 14.524-9.872 27.594-9.871zM87.682 179.997l-0.274-47.724-27.276 27.276c-8.138 8.138-11.636 15.44-11.094 22.587 0.549 7.246 5.226 14.642 13.413 22.823 0.037 0.037 0.081 0.081 0.113 0.125l24.837 24.551 0.281-49.644zM92.303 241.483l-0.2 35.09h0.013c0 11.58 1.921 20.117 6.66 25.63 4.664 5.432 12.297 8.113 23.815 8.113h38.576l-33.55-33.936-35.308-34.903zM325.415 49.672h-38.575l33.549 33.936 35.308 34.902 0.2-34.884c-0.006-0.069-0.006-0.137-0.007-0.205 0-11.58-1.921-20.117-6.66-25.63-4.664-5.432-12.297-8.113-23.815-8.113zM360.599 130.352l-0.281 49.645 0.274 47.724 27.276-27.276c8.138-8.138 11.636-15.44 11.094-22.587-0.549-7.252-5.226-14.642-13.413-22.824l0.006-0.006-24.956-24.669z" fill="#ffffff" fill-rule="nonzero" stroke="none" stroke-width="1" stroke-linecap="butt" stroke-linejoin="miter" stroke-miterlimit="10" stroke-dasharray="" stroke-dashoffset="0" font-family="none" font-weight="none" font-size="none" text-anchor="none" style="mix-blend-mode: normal" data-fill-palette-color="tertiary"></path></g><g transform="matrix(1,0,0,1,112,103.85611510791367)"><svg viewBox="0 0 224 152.28776978417267" height="152.28776978417267" width="224"><g><svg viewBox="0 0 224 152.28776978417267" height="152.28776978417267" width="224"><g><svg viewBox="0 0 224 152.28776978417267" height="152.28776978417267" width="224"><g><svg viewBox="0 0 224 152.28776978417267" height="152.28776978417267" width="224"><g id="textblocktransform"><svg viewBox="0 0 224 152.28776978417267" height="152.28776978417267" width="224" id="textblock"><g><svg viewBox="0 0 224 152.28776978417267" height="152.28776978417267" width="224"><g transform="matrix(1,0,0,1,0,0)"><svg width="224" viewBox="1.9800000190734863 -36.90999984741211 54.290000915527344 36.90999984741211" height="152.28776978417267" data-palette-color="#7c4e29"><path d="M24.73-21.97L24.73-21.97 24.73 0 22.97 0 22.97-21.97Q22.97-22.68 22.74-23.18 22.51-23.68 22.14-23.95 21.78-24.22 21.18-24.38 20.58-24.54 20.02-24.57 19.46-24.61 18.63-24.61 17.8-24.61 17.24-24.57 16.67-24.54 16.08-24.38 15.48-24.22 15.11-23.95 14.75-23.68 14.51-23.18 14.28-22.68 14.28-21.97L14.28-21.97 14.28 0 12.52 0 12.52-21.97Q12.52-26.37 18.63-26.37 24.73-26.37 24.73-21.97ZM28.25-21.97L28.25-21.97 28.25 0 26.49 0 26.49-21.97Q26.49-25.07 24.3-26.6 22.12-28.13 18.63-28.13 15.14-28.13 12.95-26.6 10.77-25.07 10.77-21.97L10.77-21.97 10.77 0 9.01 0 9.01-21.97Q9.01-24.54 10.33-26.37 11.65-28.2 13.78-29.04 15.92-29.88 18.63-29.88 21.34-29.88 23.47-29.04 25.61-28.2 26.93-26.37 28.25-24.54 28.25-21.97ZM31.76-21.97L31.76-21.97 31.76 0 30 0 30-21.97Q30-24.27 29.11-26.12 28.22-27.98 26.66-29.17 25.1-30.37 23.05-31.01 21-31.64 18.63-31.64 16.26-31.64 14.21-31.01 12.16-30.37 10.6-29.17 9.03-27.98 8.14-26.12 7.25-24.27 7.25-21.97L7.25-21.97 7.25 0 5.49 0 5.49-21.97Q5.49-24.63 6.53-26.81 7.57-28.98 9.35-30.41 11.13-31.84 13.53-32.62 15.92-33.4 18.63-33.4 21.34-33.4 23.73-32.62 26.12-31.84 27.91-30.41 29.69-28.98 30.73-26.81 31.76-24.63 31.76-21.97ZM35.28-21.97L35.28 0 33.52 0 33.52-21.97Q33.52-24.63 32.34-27.08 31.15-29.52 29.15-31.29 27.15-33.06 24.39-34.11 21.63-35.16 18.63-35.16L18.63-35.16Q14.5-35.16 11.15-33.61 7.79-32.06 5.76-29.02 3.74-25.98 3.74-21.97L3.74-21.97 3.74 0 1.98 0 1.98-21.97Q1.98-25.34 3.3-28.17 4.61-31.01 6.87-32.91 9.13-34.81 12.17-35.86 15.21-36.91 18.63-36.91L18.63-36.91Q24.68-36.91 29.13-33.86L29.13-33.86Q33.57-36.91 39.62-36.91L39.62-36.91Q43.04-36.91 46.08-35.86 49.12-34.81 51.38-32.91 53.64-31.01 54.96-28.17 56.27-25.34 56.27-21.97L56.27-21.97 56.27 0 54.52 0 54.52-21.97Q54.52-25.95 52.49-28.99 50.46-32.03 47.11-33.59 43.75-35.16 39.62-35.16L39.62-35.16Q34.45-35.16 30.59-32.71L30.59-32.71Q31.15-32.23 31.84-31.45L31.84-31.45Q35.18-33.4 39.62-33.4L39.62-33.4Q42.33-33.4 44.73-32.62 47.12-31.84 48.9-30.41 50.68-28.98 51.72-26.81 52.76-24.63 52.76-21.97L52.76-21.97 52.76 0 51 0 51-21.97Q51-24.27 50.11-26.12 49.22-27.98 47.66-29.17 46.09-30.37 44.04-31.01 41.99-31.64 39.62-31.64L39.62-31.64Q35.74-31.64 32.91-30.05L32.91-30.05Q33.35-29.37 33.79-28.54L33.79-28.54Q36.18-29.88 39.62-29.88L39.62-29.88Q42.33-29.88 44.47-29.04 46.61-28.2 47.92-26.37 49.24-24.54 49.24-21.97L49.24-21.97 49.24 0 47.49 0 47.49-21.97Q47.49-25.07 45.3-26.6 43.12-28.13 39.62-28.13L39.62-28.13Q36.45-28.13 34.47-26.95L34.47-26.95Q34.79-26.03 34.96-25.2L34.96-25.2Q36.5-26.37 39.62-26.37L39.62-26.37Q45.73-26.37 45.73-21.97L45.73-21.97 45.73 0 43.97 0 43.97-21.97Q43.97-22.68 43.74-23.18 43.51-23.68 43.14-23.95 42.77-24.22 42.18-24.38 41.58-24.54 41.02-24.57 40.45-24.61 39.62-24.61 38.79-24.61 38.23-24.57 37.67-24.54 37.07-24.38 36.47-24.22 36.11-23.95 35.74-23.68 35.51-23.18 35.28-22.68 35.28-21.97L35.28-21.97Z" opacity="1" transform="matrix(1,0,0,1,0,0)" fill="#ffffff" class="wordmark-text-0" data-fill-palette-color="primary" id="text-0"></path></svg></g></svg></g></svg></g></svg></g><g></g></svg></g></svg></g></svg></g></svg></g><defs></defs></svg><rect width="448" height="360" fill="none" stroke="none" visibility="hidden"></rect></g></svg></g></svg>